<svg width="27" height="24" viewBox="0 0 27 24" fill="none" xmlns="http://www.w3.org/2000/svg">
<path d="M0.74939 2.57143V16.7143C0.74939 18.108 1.92187 19.2857 3.30939 19.2857H6.72272V23.5714C6.72272 23.7484 6.8311 23.9074 6.99536 23.9713C7.04571 23.991 7.09776 24 7.14939 24C7.26715 24 7.38235 23.9511 7.46512 23.8599L11.6046 19.2857H23.7894C25.1769 19.2857 26.3494 18.108 26.3494 16.7143V2.57143C26.3494 1.17771 25.1769 0 23.7894 0H3.30939C1.92187 0 0.74939 1.17771 0.74939 2.57143ZM17.8161 9.42857C17.8161 8.48314 18.5815 7.71429 19.5227 7.71429C20.464 7.71429 21.2294 8.48314 21.2294 9.42857C21.2294 10.374 20.464 11.1429 19.5227 11.1429C18.5815 11.1429 17.8161 10.374 17.8161 9.42857ZM11.8427 9.42857C11.8427 8.48314 12.6082 7.71429 13.5494 7.71429C14.4906 7.71429 15.2561 8.48314 15.2561 9.42857C15.2561 10.374 14.4906 11.1429 13.5494 11.1429C12.6082 11.1429 11.8427 10.374 11.8427 9.42857ZM5.86939 9.42857C5.86939 8.48314 6.63483 7.71429 7.57606 7.71429C8.51728 7.71429 9.28272 8.48314 9.28272 9.42857C9.28272 10.374 8.51728 11.1429 7.57606 11.1429C6.63483 11.1429 5.86939 10.374 5.86939 9.42857Z" fill="white"/>
</svg>
