<svg width="20" height="20" viewBox="0 0 20 20" fill="none" xmlns="http://www.w3.org/2000/svg">
<g clip-path="url(#clip0_2226_88)">
<path d="M18.2142 17.8572C18.6638 17.8572 19.0533 17.7087 19.3845 17.4156L13.7182 11.7491C13.5822 11.8464 13.4505 11.9411 13.326 12.0311C12.9019 12.3435 12.5578 12.5873 12.2935 12.762C12.0293 12.9371 11.6777 13.1156 11.2388 13.2978C10.7997 13.4802 10.3906 13.5711 10.0111 13.5711H9.99995H9.98884C9.60928 13.5711 9.20016 13.4803 8.76105 13.2978C8.32194 13.1156 7.97037 12.9371 7.70639 12.762C7.44215 12.5873 7.09818 12.3436 6.67392 12.0311C6.55569 11.9444 6.42457 11.8493 6.28281 11.7476L0.615402 17.4156C0.946524 17.7087 1.33632 17.8572 1.78586 17.8572H18.2142Z" fill="#009EFD"/>
<path d="M1.12735 8.18085C0.703347 7.89817 0.327345 7.57442 0 7.20975V15.8309L4.99427 10.8367C3.99513 10.1391 2.7078 9.25486 1.12735 8.18085Z" fill="#009EFD"/>
<path d="M18.8838 8.18085C17.3637 9.20977 16.0716 10.0955 15.0076 10.8386L19.9999 15.8311V7.20975C19.6798 7.56709 19.3078 7.89062 18.8838 8.18085Z" fill="#009EFD"/>
<path d="M18.2144 2.14282H1.78606C1.21292 2.14282 0.772288 2.33636 0.463606 2.72304C0.154671 3.1099 0.000457764 3.59371 0.000457764 4.17392C0.000457764 4.64259 0.205107 5.1504 0.614225 5.6975C1.02334 6.24438 1.45868 6.67394 1.92001 6.9864C2.17292 7.16509 2.9356 7.6953 4.20805 8.57687C4.89495 9.05287 5.4923 9.46776 6.00563 9.82579C6.44318 10.1307 6.82053 10.3947 7.13208 10.6138C7.16784 10.6389 7.22409 10.6791 7.29874 10.7325C7.37917 10.7902 7.48095 10.8636 7.60652 10.9542C7.84831 11.1291 8.04919 11.2705 8.20917 11.3785C8.36894 11.4865 8.56252 11.6071 8.78961 11.7411C9.01652 11.8749 9.23053 11.9756 9.43141 12.0425C9.63232 12.1094 9.8183 12.1429 9.9894 12.1429H10.0005H10.0116C10.1827 12.1429 10.3687 12.1094 10.5697 12.0425C10.7705 11.9756 10.9843 11.8752 11.2114 11.7411C11.4383 11.6071 11.6316 11.4862 11.7919 11.3785C11.9519 11.2705 12.1527 11.1291 12.3946 10.9542C12.5199 10.8636 12.6217 10.7902 12.7021 10.7327C12.7768 10.6791 12.833 10.6391 12.869 10.6138C13.1117 10.4449 13.4899 10.182 13.9984 9.82888C14.9237 9.18599 16.2864 8.23975 18.0922 6.9864C18.6353 6.60706 19.089 6.14928 19.4537 5.61373C19.8177 5.07818 20.0002 4.51641 20.0002 3.9286C20.0002 3.4375 19.8233 3.01727 19.4702 2.66726C19.1166 2.3177 18.698 2.14282 18.2144 2.14282Z" fill="#009EFD"/>
</g>
<defs>
<clipPath id="clip0_2226_88">
<rect width="20" height="20" fill="white"/>
</clipPath>
</defs>
</svg>
