<svg width="14" height="14" viewBox="0 0 14 14" fill="none" xmlns="http://www.w3.org/2000/svg">
<path d="M12.4096 6.00527H8.52129C8.39497 6.00527 8.29256 5.90286 8.29256 5.77654V1.88825C8.29256 1.25669 7.7805 0.744629 7.14895 0.744629C6.51739 0.744629 6.00533 1.25669 6.00533 1.88825V5.77654C6.00533 5.90286 5.90292 6.00527 5.7766 6.00527H1.88831C1.25675 6.00527 0.74469 6.51733 0.74469 7.14888C0.74469 7.78044 1.25675 8.2925 1.88831 8.2925H5.7766C5.90292 8.2925 6.00533 8.39491 6.00533 8.52122V12.4095C6.00533 13.0411 6.51739 13.5531 7.14895 13.5531C7.7805 13.5531 8.29256 13.0411 8.29256 12.4095V8.52122C8.29256 8.39491 8.39497 8.2925 8.52129 8.2925H12.4096C13.0411 8.2925 13.5532 7.78044 13.5532 7.14888C13.5532 6.51733 13.0411 6.00527 12.4096 6.00527Z" fill="white"/>
</svg>
