<svg width="18" height="18" viewBox="0 0 18 18" fill="none" xmlns="http://www.w3.org/2000/svg">
<path d="M17.8404 17.082L13.4661 12.7078C14.6395 11.3588 15.3499 9.59867 15.3499 7.67494C15.3499 3.44035 11.9055 0 7.67494 0C3.44035 0 0 3.44435 0 7.67494C0 11.9055 3.44435 15.3499 7.67494 15.3499C9.59867 15.3499 11.3588 14.6395 12.7078 13.4661L17.082 17.8404C17.1858 17.9441 17.3255 18 17.4612 18C17.5969 18 17.7366 17.9481 17.8404 17.8404C18.0479 17.6328 18.0479 17.2896 17.8404 17.082ZM1.07361 7.67494C1.07361 4.03503 4.03503 1.07761 7.67095 1.07761C11.3109 1.07761 14.2683 4.03902 14.2683 7.67494C14.2683 11.3109 11.3109 14.2763 7.67095 14.2763C4.03503 14.2763 1.07361 11.3149 1.07361 7.67494Z" fill="#A5A5A7"/>
</svg>
