<svg width="19" height="18" viewBox="0 0 19 18" fill="none" xmlns="http://www.w3.org/2000/svg">
<path d="M15.8583 6.93618L15.3941 5.83337C15.3941 5.83337 16.474 3.39698 16.3786 3.30331L14.9488 1.90756C14.85 1.81133 12.4127 2.9235 12.4127 2.9235L11.2886 2.4696C11.2886 2.4696 10.2957 0 10.1594 0H8.14202C8.00151 0 7.08265 2.47471 7.08265 2.47471L5.96026 2.93031C5.96026 2.93031 3.47192 1.87264 3.37654 1.96717L1.94928 3.36462C1.8505 3.46085 2.98652 5.84785 2.98652 5.84785L2.5224 6.94895C2.5224 6.94895 0 7.92061 0 8.05176V10.0291C0 10.1671 2.52836 11.0672 2.52836 11.0672L2.99248 12.1666C2.99248 12.1666 1.91266 14.6013 2.00719 14.695L3.43615 16.0941C3.53324 16.1887 5.97133 15.0765 5.97133 15.0765L7.09628 15.5321C7.09628 15.5321 8.08923 18 8.22633 18H10.2437C10.3834 18 11.3031 15.5253 11.3031 15.5253L12.4289 15.0697C12.4289 15.0697 14.9121 16.1274 15.0084 16.0345L16.4373 14.6371C16.537 14.5391 15.3984 12.1539 15.3984 12.1539L15.8617 11.0528C15.8617 11.0528 18.3849 10.0794 18.3849 9.94654V7.97086C18.3858 7.83375 15.8583 6.93618 15.8583 6.93618ZM12.1402 8.99957C12.1402 10.5895 10.8177 11.8839 9.19288 11.8839C7.56976 11.8839 6.24554 10.5895 6.24554 8.99957C6.24554 7.40966 7.56976 6.11695 9.19288 6.11695C10.8186 6.1178 12.1402 7.40966 12.1402 8.99957Z" fill="#1AE4A6"/>
</svg>
