<?xml version="1.0" encoding="iso-8859-1"?>
<!-- Uploaded to: SVG Repo, www.svgrepo.com, Generator: SVG Repo Mixer Tools -->
<svg height="800px" width="800px" version="1.1" id="Layer_1" xmlns="http://www.w3.org/2000/svg" xmlns:xlink="http://www.w3.org/1999/xlink" 
	 viewBox="0 0 512 512" xml:space="preserve">
<g transform="translate(1 1)">
	<polygon style="fill:#CCCCCC;" points="272.655,449.207 502.172,449.207 502.172,60.793 272.655,60.793 	"/>
	<polygon style="fill:#FFFFFF;" points="7.828,449.207 237.345,449.207 237.345,60.793 7.828,60.793 	"/>
	<polygon style="fill:#E2E3E5;" points="34.31,449.207 475.69,449.207 475.69,60.793 34.31,60.793 	"/>
	<path style="fill:#E0E0E0;" d="M167.607,198.503c0,22.069-17.655,40.607-40.607,40.607s-39.724-18.538-39.724-40.607
		s17.655-40.607,40.607-40.607S167.607,175.552,167.607,198.503"/>
	<path style="fill:#F0F0F0;" d="M141.124,198.503c0,22.069-12.359,40.607-27.366,40.607s-26.483-18.538-26.483-40.607
		s12.359-40.607,27.366-40.607S141.124,175.552,141.124,198.503"/>
	<g>
		<path style="fill:#B6B6B6;" d="M502.172,458.034H7.828c-5.297,0-8.828-3.531-8.828-8.828V60.793c0-5.297,3.531-8.828,8.828-8.828
			h494.345c5.297,0,8.828,3.531,8.828,8.828v388.414C511,454.503,507.469,458.034,502.172,458.034z M16.655,440.379h476.69V69.621
			H16.655V440.379z"/>
		<path style="fill:#B6B6B6;" d="M127.883,247.055c-27.366,0-49.434-22.069-49.434-49.434s22.069-49.434,49.434-49.434
			s49.434,22.069,49.434,49.434S154.366,247.055,127.883,247.055z M127.883,166.724c-17.655,0-31.779,14.124-31.779,31.779
			s14.124,31.779,31.779,31.779s31.779-14.124,31.779-31.779S144.655,166.724,127.883,166.724z"/>
		<path style="fill:#B6B6B6;" d="M60.793,405.069c-2.648,0-5.297-0.883-7.062-2.648c-3.531-3.531-2.648-8.828,0.883-12.359
			l150.069-132.414c3.531-2.648,8.828-2.648,12.359,0l97.103,97.103c3.531,3.531,3.531,8.828,0,12.359
			c-3.531,3.531-8.828,3.531-12.359,0l-90.924-90.924L66.972,403.303C65.207,404.186,62.559,405.069,60.793,405.069z"/>
		<path style="fill:#B6B6B6;" d="M259.414,321.207c-1.766,0-4.414-0.883-6.179-2.648c-3.531-3.531-3.531-8.828-0.883-12.359
			l92.69-101.517c1.766-1.766,3.531-2.648,6.179-2.648c2.648,0,4.414,0.883,6.179,2.648l105.931,97.103
			c3.531,3.531,3.531,8.828,0.883,12.359c-3.531,3.531-8.828,3.531-12.359,0.883l-98.869-91.807l-86.51,95.338
			C263.828,320.324,262.062,321.207,259.414,321.207z"/>
	</g>
</g>
</svg>